<?xml version="1.0" standalone="no"?>
<!DOCTYPE svg PUBLIC "-//W3C//DTD SVG 20010904//EN"
 "http://www.w3.org/TR/2001/REC-SVG-20010904/DTD/svg10.dtd">
<svg version="1.0" xmlns="http://www.w3.org/2000/svg"
 width="500.000000pt" height="500.000000pt" viewBox="0 0 500.000000 500.000000"
 preserveAspectRatio="xMidYMid meet">
<metadata>
Created by potrace 1.11, written by Peter Selinger 2001-2013
</metadata>
<g transform="translate(0.000000,500.000000) scale(0.100000,-0.100000)"
fill="#000000" stroke="none">
<path d="M0 3786 c0 -1103 1 -1215 16 -1227 14 -11 18 -10 30 6 18 25 18 35
-2 35 -22 0 -12 24 12 29 10 2 21 7 24 11 8 11 120 22 120 11 0 -5 -10 -12
-22 -16 -20 -6 -17 -9 19 -18 26 -6 43 -16 43 -24 0 -9 11 -24 25 -35 18 -14
24 -26 20 -39 -4 -10 -2 -26 4 -36 8 -16 10 -14 16 10 5 17 14 27 26 27 15 0
19 -7 19 -40 0 -28 4 -40 14 -40 8 0 17 -6 19 -12 4 -10 8 -10 15 1 8 11 13 5
22 -27 6 -23 17 -42 24 -42 7 0 19 -12 27 -26 12 -24 17 -26 68 -22 46 4 54 2
59 -14 6 -26 52 -25 52 2 0 29 17 25 23 -5 3 -18 -1 -29 -14 -36 -11 -5 -19
-16 -19 -23 0 -8 -9 -16 -20 -19 -11 -3 -20 -12 -20 -20 0 -22 19 -31 26 -13
12 32 26 15 23 -28 -4 -50 5 -53 15 -5 4 22 10 30 21 25 8 -3 16 0 16 7 5 51
16 62 59 62 38 0 40 -1 40 -32 0 -18 -4 -33 -10 -33 -16 0 -11 -37 6 -44 9 -4
13 -13 10 -24 -3 -9 -2 -32 3 -50 6 -20 6 -30 0 -27 -5 4 -9 -3 -9 -14 0 -13
-5 -19 -14 -15 -21 8 -29 -14 -12 -32 9 -9 14 -20 11 -25 -9 -14 -25 -11 -25
6 0 24 -17 17 -40 -16 -27 -36 -19 -52 9 -18 13 16 23 21 29 14 12 -12 4 -75
-9 -75 -5 0 -9 -15 -9 -33 0 -18 -4 -37 -8 -43 -18 -20 28 -338 56 -391 7 -12
12 -35 12 -51 0 -16 8 -36 17 -43 15 -13 16 -11 9 11 -17 56 -24 106 -19 136
4 23 -1 43 -16 67 -19 31 -21 48 -19 148 2 130 18 102 18 -33 0 -42 4 -79 9
-82 4 -3 11 27 14 68 4 40 13 85 21 101 8 15 18 45 21 67 4 21 10 38 15 38 10
0 19 50 12 68 -3 10 -9 6 -18 -14 l-12 -29 -1 42 c-1 23 5 48 12 55 6 7 13 22
15 33 2 11 12 27 23 37 10 9 19 21 19 27 0 6 9 16 20 23 11 7 20 23 20 35 0
13 3 23 8 23 9 0 9 -56 0 -65 -4 -4 -4 -13 -1 -21 3 -8 0 -14 -6 -14 -6 0 -11
-12 -11 -26 0 -21 -3 -24 -13 -15 -20 16 -66 -34 -48 -52 10 -10 16 -7 28 11
24 35 47 29 39 -10 l-6 -32 24 23 c21 20 27 21 45 9 12 -7 21 -16 21 -21 0 -4
-4 -6 -8 -3 -15 9 -29 -9 -36 -44 -4 -25 -3 -29 3 -15 8 19 9 19 16 1 5 -11 3
-21 -4 -25 -8 -5 -8 -15 0 -38 7 -23 7 -37 0 -52 -6 -11 -11 -31 -11 -45 0
-14 -4 -26 -10 -26 -5 0 -10 -8 -10 -17 0 -9 -8 -25 -17 -35 -12 -13 -13 -22
-6 -29 14 -14 34 -3 27 15 -3 7 2 16 10 19 10 4 13 13 9 23 -4 10 4 25 21 40
14 14 26 29 26 34 0 6 5 10 10 10 6 0 10 -9 10 -20 0 -11 -6 -20 -12 -20 -19
0 -41 -51 -28 -64 7 -7 10 -5 10 5 0 8 9 20 20 27 11 7 20 22 20 35 0 12 4 29
10 37 17 27 24 -18 10 -63 -15 -48 -20 -118 -8 -111 4 3 8 -6 8 -19 0 -14 -6
-27 -13 -30 -9 -3 -12 -16 -9 -35 3 -21 -2 -33 -15 -43 -29 -21 -51 -152 -23
-134 4 3 11 -6 14 -20 4 -14 11 -25 17 -25 6 0 6 -7 -1 -21 -8 -13 -9 -48 -4
-102 11 -116 8 -205 -6 -222 -7 -9 -10 -18 -6 -22 3 -3 6 -1 6 5 0 18 20 14
27 -4 3 -9 0 -20 -8 -25 -12 -8 -12 -10 1 -8 33 3 40 -2 40 -31 0 -23 -4 -30
-20 -30 -11 0 -20 -4 -20 -8 0 -8 -38 -56 -82 -103 -10 -10 -17 -29 -15 -41 1
-17 -5 -23 -28 -28 -39 -8 -85 -38 -85 -55 0 -8 -10 -15 -22 -17 -13 -2 5 -4
38 -3 34 0 68 6 75 12 8 6 33 19 56 28 23 9 44 23 47 30 7 19 75 47 97 40 9
-3 24 1 32 10 22 21 24 20 47 -29 27 -61 26 -78 -4 -70 -13 3 -27 1 -30 -4 -3
-6 -14 -8 -25 -5 -23 6 -169 -42 -198 -65 -12 -10 -24 -33 -27 -52 l-7 -35 23
37 c13 21 28 38 33 38 6 0 28 9 49 20 28 14 66 21 142 24 57 3 112 9 122 15
26 14 39 2 47 -42 6 -32 5 -37 -11 -37 -10 0 -28 12 -41 28 -22 27 -22 27 -23
4 0 -18 -4 -22 -18 -18 -9 3 -37 8 -62 11 -25 3 -52 8 -61 11 -20 6 -49 -21
-49 -44 0 -9 -9 -35 -20 -57 -10 -22 -22 -53 -25 -68 -3 -15 -9 -25 -14 -23
-5 3 -11 -4 -14 -16 -4 -12 -1 -25 5 -29 14 -9 2 -75 -23 -117 -10 -18 -19
-46 -19 -62 0 -16 -4 -32 -10 -35 -30 -18 1 -25 114 -25 l123 0 -1 53 c0 40 6
64 27 99 15 26 27 53 27 60 0 7 11 35 25 62 14 27 25 58 25 68 0 10 7 18 15
18 16 0 20 -21 6 -35 -13 -15 -56 -146 -57 -175 -3 -84 -5 -103 -11 -97 -7 8
-32 -23 -33 -40 0 -10 24 -13 87 -13 83 0 85 1 69 18 -15 17 -15 21 0 50 8 18
19 32 24 32 10 0 26 -66 22 -87 -2 -7 7 -13 19 -13 21 0 21 3 15 55 -5 45 -1
70 18 128 40 117 51 144 66 162 8 9 19 27 25 39 9 17 19 21 56 18 46 -3 94
-27 84 -42 -3 -5 -10 -35 -16 -67 -6 -32 -14 -62 -18 -68 -12 -15 -59 -136
-65 -167 -3 -14 -9 -33 -12 -42 -5 -13 1 -16 25 -16 19 0 34 6 37 15 4 8 12
15 19 15 13 0 75 88 75 106 0 5 29 54 64 109 35 55 77 120 92 145 67 107 126
174 105 118 -5 -13 -12 -52 -16 -88 -4 -36 -9 -74 -11 -85 -2 -11 -8 -58 -14
-105 -7 -47 -18 -113 -26 -147 -18 -79 -18 -83 4 -83 21 0 42 38 42 76 0 14 4
44 9 67 6 23 18 97 28 164 10 75 21 119 26 114 6 -6 5 -21 -1 -39 -8 -24 -7
-33 6 -46 9 -9 11 -16 5 -16 -19 0 -35 -55 -27 -95 5 -27 4 -36 -5 -31 -7 5
-11 -2 -11 -18 0 -14 5 -26 10 -26 16 0 7 -59 -11 -76 -14 -13 -15 -21 -7 -45
l10 -29 208 0 c189 0 208 2 212 18 7 27 -10 164 -27 211 -8 24 -15 63 -15 87
0 42 -9 68 -83 224 -61 129 -97 212 -97 222 0 11 51 2 93 -15 15 -7 27 -15 27
-19 0 -5 8 -8 17 -8 10 0 58 -42 108 -94 75 -78 100 -97 148 -115 68 -25 210
-58 282 -67 27 -3 53 -10 56 -16 4 -6 11 -8 17 -4 5 3 15 -1 22 -9 16 -19 30
-19 30 -1 0 21 19 30 35 16 8 -7 20 -10 27 -8 8 3 18 -9 24 -31 10 -31 12 -33
14 -11 1 22 3 20 16 -14 7 -21 12 -42 9 -46 -3 -4 5 -36 16 -70 18 -56 19 -69
8 -109 -6 -25 -15 -67 -19 -94 l-6 -47 918 0 918 0 0 2500 0 2500 -2500 0
-2500 0 0 -1214z m2118 435 c21 -12 54 -24 67 -26 6 -1 18 -5 28 -10 10 -4 20
-5 24 -2 3 4 18 0 34 -8 15 -8 39 -15 52 -15 31 0 188 -49 207 -65 8 -7 29
-15 45 -19 29 -7 107 -50 230 -127 33 -20 76 -46 95 -56 55 -29 153 -96 173
-117 9 -11 22 -37 28 -58 5 -21 14 -36 18 -33 5 2 11 -4 14 -15 3 -11 3 -20 1
-20 -10 0 -140 54 -149 61 -5 5 -16 9 -25 9 -8 0 -65 20 -125 45 -61 25 -126
48 -145 51 -19 4 -39 10 -45 14 -18 13 -204 110 -233 121 -21 8 -24 8 -15 -2
14 -14 101 -60 253 -134 109 -53 103 -51 235 -105 55 -23 105 -46 110 -50 15
-12 117 -51 144 -55 27 -4 48 -21 38 -32 -4 -4 -13 -1 -19 5 -15 15 -48 16
-48 1 0 -5 4 -8 9 -5 5 4 19 -6 30 -21 12 -16 18 -20 15 -10 -3 9 -1 17 5 17
6 0 11 -13 11 -30 0 -28 -2 -30 -41 -30 -22 0 -49 5 -59 10 -13 7 -21 7 -25 0
-4 -7 -23 -8 -49 -5 -32 5 -45 3 -55 -9 -11 -13 -16 -14 -29 -4 -12 10 -16 10
-19 1 -3 -7 -15 -13 -27 -13 -13 0 -36 -4 -52 -9 -92 -28 -144 -41 -187 -44
-37 -3 -56 -11 -83 -35 -19 -17 -34 -41 -34 -52 0 -22 -15 -27 -23 -7 -6 13
-8 3 -11 -43 -1 -14 -4 -29 -8 -35 -3 -5 -4 -18 -3 -27 3 -19 -46 -38 -98 -38
-16 0 -26 -4 -23 -9 3 -4 -20 -11 -51 -14 -66 -7 -113 11 -113 44 0 11 -4 17
-10 14 -5 -3 -10 -1 -10 5 0 6 -5 8 -11 4 -8 -4 -9 3 -4 25 8 36 -14 65 -51
66 -12 1 -29 7 -36 13 -11 8 -31 7 -83 -3 -39 -8 -95 -15 -125 -15 -30 0 -71
-6 -90 -13 -78 -29 -120 -50 -120 -58 0 -5 -13 -9 -29 -9 -16 0 -31 -3 -33 -8
-3 -8 -198 -76 -202 -70 -1 1 2 53 6 113 8 99 22 172 37 200 3 6 7 21 9 34 6
46 128 267 200 364 76 102 230 267 250 267 6 0 17 6 24 13 37 35 45 38 74 27
16 -6 32 -17 37 -23 5 -7 6 -3 2 11 -4 13 -2 22 4 22 6 0 11 6 11 14 0 13 9
17 53 25 4 0 15 -3 25 -8z m649 -887 c-3 -3 -12 -4 -19 -1 -8 3 -5 6 6 6 11 1
17 -2 13 -5z m-40 -10 c-3 -3 -12 -4 -19 -1 -8 3 -5 6 6 6 11 1 17 -2 13 -5z
m-66 -20 c-19 -8 -36 -12 -39 -9 -6 6 37 24 58 24 8 0 0 -6 -19 -15z m-2269
-21 c20 -18 24 -63 6 -81 -7 -7 -29 -12 -50 -12 -31 0 -40 5 -53 30 -18 35
-19 52 -3 68 17 17 78 15 100 -5z m2517 13 c-2 -2 -22 -6 -44 -9 -28 -5 -34
-4 -20 3 19 8 73 14 64 6z m45 -33 c4 -4 -33 -17 -81 -29 -48 -12 -90 -21 -92
-18 -5 5 -8 3 44 31 39 22 114 31 129 16z m-1047 -20 c-20 -2 -52 -2 -70 0
-17 2 0 4 38 4 39 0 53 -2 32 -4z m863 -43 c0 -5 -5 -10 -11 -10 -5 0 -7 5 -4
10 3 6 8 10 11 10 2 0 4 -4 4 -10z m-1190 -20 c0 -5 -7 -10 -16 -10 -8 0 -12
5 -9 10 3 6 10 10 16 10 5 0 9 -4 9 -10z m397 -15 c12 -12 11 -15 -9 -19 -72
-14 -179 -27 -188 -21 -5 3 -10 3 -10 -2 0 -4 -18 -9 -41 -10 -22 -2 -55 -12
-72 -24 -35 -24 -77 -68 -77 -79 0 -4 -10 -11 -22 -14 l-23 -7 23 -9 c30 -13
28 -24 -12 -45 -48 -26 -69 -15 -60 32 8 46 41 83 101 114 25 13 48 30 51 37
3 8 32 28 66 44 59 28 65 29 160 23 64 -4 103 -11 113 -20z m-469 -23 c-22
-25 -68 -123 -68 -144 0 -10 -4 -18 -9 -18 -21 0 -32 32 -29 87 l3 58 55 27
c55 27 75 22 48 -10z m1172 13 c0 -3 -9 -14 -21 -26 -26 -26 -39 -16 -14 11
17 19 35 26 35 15z m146 -30 l19 -36 69 6 c63 6 67 5 52 -10 -18 -19 -21 -29
-5 -20 6 4 16 -1 23 -10 8 -11 21 -15 37 -12 23 4 24 5 2 12 -21 7 -38 41 -24
49 11 7 38 -18 45 -42 9 -29 46 -29 119 -1 38 15 54 26 50 35 -6 17 31 32 64
26 12 -2 23 -11 23 -18 0 -8 7 -14 16 -14 8 0 12 -5 9 -10 -5 -8 -11 -7 -21 0
-7 7 -19 10 -25 8 -7 -2 0 -18 20 -40 17 -20 31 -40 31 -46 0 -6 8 -16 18 -22
15 -10 15 -11 0 -6 -11 3 -15 1 -12 -8 12 -30 -162 -85 -336 -107 -93 -11
-268 -8 -302 6 -10 4 -15 11 -12 16 3 5 0 9 -5 9 -14 0 -8 39 6 48 6 4 9 22 7
40 -3 30 -2 32 26 32 17 0 30 4 30 9 0 5 -8 7 -19 4 -10 -3 -22 0 -25 6 -7 11
5 15 39 11 16 -1 18 1 8 11 -25 25 -14 35 35 34 l47 -2 -37 10 c-42 12 -46 21
-21 49 22 25 27 23 49 -17z m-406 2 c22 -11 26 -22 33 -82 17 -157 17 -155 -3
-172 -21 -18 -20 -36 7 -110 9 -24 20 -43 26 -43 6 0 21 -10 33 -21 l23 -22
48 23 c42 20 45 23 27 33 -28 16 -43 39 -44 68 0 28 1 28 136 1 74 -16 292
-26 279 -14 -5 6 -55 12 -110 14 -55 2 -109 9 -120 16 -16 9 2 11 95 12 113 0
235 15 378 46 40 9 75 15 77 13 1 -2 5 -15 7 -28 4 -31 -12 -39 -95 -46 -70
-7 -84 -25 -19 -25 32 0 142 -27 118 -29 -5 -1 -3 -8 4 -16 21 -25 -2 -134
-38 -177 -14 -16 -13 -61 1 -143 26 -147 30 -186 21 -231 -8 -43 -34 -75 -34
-43 0 8 -9 36 -19 64 -11 27 -26 71 -33 98 -7 26 -15 47 -19 47 -4 0 -9 9 -12
20 -6 23 -27 27 -27 5 0 -8 -5 -15 -11 -15 -6 0 -8 -9 -4 -20 4 -11 2 -20 -4
-20 -6 0 -11 7 -11 15 0 8 -5 15 -11 15 -5 0 -7 -4 -4 -10 3 -5 1 -11 -4 -11
-6 -1 -17 -2 -23 -3 -7 -1 -15 7 -18 18 -7 25 -30 33 -30 11 0 -9 5 -13 10
-10 6 3 10 -1 10 -9 0 -8 -4 -17 -10 -21 -13 -8 -49 16 -56 38 -3 9 -17 31
-31 48 -21 24 -26 40 -25 84 0 54 0 55 -43 82 -29 19 -42 33 -39 44 5 17 -21
33 -68 43 -22 5 -31 1 -44 -19 -39 -60 -97 -75 -240 -61 -49 4 -66 2 -92 -14
-18 -11 -36 -28 -39 -38 -13 -36 -44 -70 -77 -86 -33 -15 -36 -15 -85 9 -54
28 -181 47 -181 27 0 -18 50 -51 89 -58 93 -15 167 -60 156 -93 -4 -15 3 -18
47 -21 29 -1 79 -2 112 -1 34 1 65 -4 73 -11 12 -10 18 -9 29 7 17 23 28 13
31 -28 1 -27 -4 -37 -31 -55 -18 -12 -39 -22 -48 -22 -9 0 -33 -8 -54 -17 -51
-23 -201 -25 -226 -3 -23 19 -23 51 1 82 21 26 18 68 -4 68 -7 0 -15 9 -18 20
-6 23 -27 27 -27 6 0 -8 -7 -16 -15 -20 -8 -3 -15 0 -15 7 0 8 -3 8 -8 2 -4
-6 -14 -10 -22 -10 -28 1 -39 -20 -30 -58 4 -20 5 -38 2 -41 -2 -3 0 -11 6
-19 8 -10 6 -13 -10 -14 -15 -2 -19 3 -15 18 3 12 0 19 -9 19 -15 0 -19 16 -6
24 5 3 7 19 4 36 -3 22 -10 30 -24 30 -15 0 -19 -6 -17 -27 3 -42 -12 -133
-23 -133 -5 0 -14 13 -21 29 -10 23 -16 27 -34 20 -11 -4 -24 -13 -28 -19 -5
-8 -11 -6 -20 6 -11 16 -14 14 -26 -19 -13 -37 -29 -41 -29 -6 0 11 -4 18 -9
15 -5 -4 -12 0 -15 6 -3 10 -9 8 -19 -4 -8 -10 -17 -15 -20 -11 -4 3 -7 -3 -7
-14 0 -29 -11 -35 -31 -17 -11 10 -19 12 -24 5 -3 -6 1 -14 9 -17 10 -4 13
-11 8 -20 -14 -25 -2 -93 18 -99 13 -4 20 -18 22 -43 2 -30 7 -38 26 -40 15
-2 22 -10 22 -25 0 -16 3 -18 12 -9 9 9 9 15 0 24 -18 18 -16 78 3 78 11 0 15
11 15 43 0 31 3 38 10 27 9 -13 12 -13 24 3 13 17 15 17 24 1 6 -11 21 -17 40
-16 23 0 42 -10 74 -39 24 -21 45 -39 48 -40 3 0 13 -2 22 -4 13 -2 15 1 9 18
-12 35 -7 52 14 52 13 0 21 8 23 23 3 18 10 22 35 22 18 0 68 2 112 4 44 2
101 -1 127 -7 40 -9 53 -8 88 8 35 16 45 16 78 6 27 -9 44 -10 66 -1 39 14 65
4 72 -28 3 -15 7 -31 8 -36 1 -5 12 7 24 27 24 42 37 46 45 15 8 -29 -14 -73
-36 -73 -10 0 -25 -15 -35 -35 -12 -26 -25 -36 -46 -38 -16 -2 -33 1 -39 7
-16 16 -23 14 -36 -16 -10 -21 -10 -25 1 -17 21 15 111 11 116 -5 3 -9 -1 -11
-17 -6 -12 4 -21 2 -21 -4 0 -6 7 -11 15 -11 8 0 15 -7 15 -15 0 -11 12 -14
53 -12 41 2 56 7 71 25 15 19 21 21 27 10 7 -10 9 -9 9 5 0 10 7 20 15 23 8 4
15 15 15 25 0 10 5 19 10 19 6 0 10 7 10 15 0 19 128 155 146 155 7 0 22 10
34 22 11 12 21 20 23 17 7 -10 27 -101 27 -124 0 -14 5 -25 10 -25 6 0 10 6
10 14 0 8 5 18 11 22 8 4 9 -3 5 -22 -3 -16 -2 -36 3 -43 12 -18 -6 -64 -50
-129 -17 -26 -38 -68 -46 -94 -7 -27 -27 -63 -43 -82 -17 -18 -30 -41 -30 -49
0 -9 -4 -19 -10 -22 -5 -3 -10 -19 -10 -36 0 -16 -4 -29 -9 -29 -6 0 -16 -12
-24 -27 -7 -16 -19 -27 -25 -25 -13 2 -27 -24 -37 -71 -4 -18 -10 -25 -18 -20
-6 4 -31 9 -54 11 -37 3 -42 1 -46 -20 -4 -21 -5 -21 -18 10 -7 18 -19 30 -25
28 -7 -3 -15 2 -18 10 -9 24 -7 54 4 54 6 0 10 7 10 15 0 8 -5 14 -10 12 -6
-1 -16 9 -23 23 -16 32 -47 39 -47 12 0 -11 4 -22 10 -24 12 -4 40 -107 33
-125 -3 -7 2 -13 11 -13 9 0 16 -3 16 -7 0 -5 3 -19 7 -33 6 -22 5 -24 -10
-11 -9 7 -17 20 -17 27 0 8 -9 14 -20 14 -15 0 -20 7 -20 28 0 21 -2 24 -10
12 -5 -8 -10 -10 -10 -4 0 5 5 15 10 20 8 8 7 19 -2 38 -11 26 -13 26 -25 10
-11 -16 -13 -13 -13 22 0 22 5 45 10 50 12 12 -18 56 -41 60 -8 1 -21 5 -30 9
-14 5 -18 -6 -28 -71 -6 -43 -17 -84 -24 -92 -8 -11 -9 -16 -1 -19 35 -12 44
-28 34 -68 -5 -22 -11 -52 -15 -68 l-5 -27 -26 25 c-23 23 -24 27 -10 41 9 8
16 20 16 25 0 13 -24 11 -38 -3 -7 -7 -12 -8 -12 -2 0 6 4 14 10 20 5 5 11 25
14 44 3 19 8 46 11 60 6 24 6 24 -10 -2 -8 -16 -17 -28 -19 -28 -8 0 13 71 24
85 14 17 3 78 -13 72 -7 -2 -17 -13 -23 -25 -6 -12 -14 -19 -18 -14 -5 4 -7
-2 -5 -13 1 -11 -8 -40 -19 -65 -25 -52 -27 -84 -9 -120 8 -16 10 -49 7 -94
l-5 -69 -42 -2 c-29 -1 -44 2 -48 13 -3 8 -13 12 -24 9 -12 -3 -22 1 -25 9 -4
12 -9 11 -26 -3 -11 -10 -22 -16 -23 -14 -1 2 -12 -1 -23 -7 -17 -9 -22 -9
-21 1 1 20 -24 77 -34 77 -5 0 -9 10 -9 21 0 16 -5 20 -20 16 -16 -4 -20 0
-20 23 0 19 -6 29 -19 33 -15 3 -18 11 -14 27 4 16 2 21 -9 18 -9 -2 -25 8
-37 22 -16 18 -24 21 -28 12 -4 -10 -8 -10 -19 -1 -10 8 -14 8 -14 1 0 -6 -7
-9 -15 -6 -8 4 -15 12 -15 20 0 8 -7 14 -16 14 -9 0 -21 14 -27 30 -8 20 -24
36 -47 46 -20 9 -45 27 -56 41 -10 14 -28 35 -39 47 -63 70 -125 192 -153 301
-22 86 -25 92 -61 100 -33 7 -66 63 -58 96 3 11 0 19 -7 19 -27 0 -111 265
-101 319 3 20 6 59 6 86 0 37 3 45 9 30 8 -18 9 -17 9 8 1 15 6 27 11 27 22 0
39 78 25 115 -4 11 7 1 24 -22 24 -31 44 -46 74 -54 57 -15 344 -5 417 15 137
37 180 55 218 90 27 24 119 209 129 257 11 58 108 89 173 56z m-497 -26 c17
-6 -13 -17 -156 -57 -9 -3 -14 -10 -11 -16 4 -7 2 -8 -5 -4 -18 12 6 36 36 36
13 0 26 7 30 16 10 28 66 41 106 25z m247 -41 c0 -5 -5 -10 -11 -10 -5 0 -7 5
-4 10 3 6 8 10 11 10 2 0 4 -4 4 -10z m-1065 -82 c35 -16 40 -47 27 -157 -14
-104 -21 -115 -84 -126 -71 -12 -104 30 -93 120 13 108 17 125 40 149 26 29
67 34 110 14z m1055 -28 c21 -82 -61 -157 -210 -193 -163 -39 -427 -50 -475
-18 -15 9 -16 11 -3 7 25 -8 68 58 68 105 0 61 21 71 163 83 42 3 55 2 50 -7
-4 -7 0 -6 10 2 9 7 29 11 43 8 15 -2 28 0 30 8 3 7 28 13 61 14 31 1 61 5 66
8 4 3 16 -1 25 -9 16 -13 25 -15 75 -10 9 1 17 9 17 18 0 11 9 14 37 12 30 -2
38 -8 43 -28z m344 -185 c3 -9 0 -15 -9 -15 -8 0 -15 7 -15 15 0 8 4 15 9 15
5 0 11 -7 15 -15z m436 -365 c0 -5 -5 -10 -11 -10 -5 0 -7 5 -4 10 3 6 8 10
11 10 2 0 4 -4 4 -10z m-2125 -9 c3 -5 1 -12 -5 -16 -5 -3 -10 1 -10 9 0 18 6
21 15 7z m-105 -51 c0 -11 -4 -20 -10 -20 -5 0 -10 9 -10 20 0 11 5 20 10 20
6 0 10 -9 10 -20z m174 12 c2 -4 -5 -9 -17 -9 -12 -1 -32 -5 -44 -8 -13 -3
-23 -3 -23 0 0 16 75 31 84 17z m-4 -58 c0 -8 -5 -12 -10 -9 -6 4 -8 11 -5 16
9 14 15 11 15 -7z m-107 -19 c-3 -8 -9 -15 -14 -15 -10 0 -12 24 -3 33 11 11
24 -3 17 -18z m130 -91 c-6 -17 -20 -18 -26 -1 -4 7 -8 3 -12 -10 -4 -13 -13
-23 -21 -23 -11 0 -11 5 -3 24 9 18 19 24 39 24 19 -1 27 -5 23 -14z m67 -2
c0 -2 -11 -17 -24 -33 -19 -22 -25 -25 -30 -13 -8 21 14 53 36 51 10 -1 18 -3
18 -5z m-114 -84 c0 -12 -7 -23 -15 -26 -10 -3 -12 0 -8 12 4 10 7 22 7 27 0
5 4 9 9 9 4 0 8 -10 7 -22z m40 -16 c-11 -11 -16 -12 -16 -4 0 18 24 43 29 30
2 -5 -4 -17 -13 -26z m124 -61 c0 -6 -4 -13 -10 -16 -5 -3 -10 1 -10 9 0 9 5
16 10 16 6 0 10 -4 10 -9z m-193 -83 c-3 -8 -6 -5 -6 6 -1 11 2 17 5 13 3 -3
4 -12 1 -19z m435 -111 c3 -27 2 -45 -3 -40 -4 4 -11 35 -14 68 -3 39 -2 53 3
40 5 -11 12 -42 14 -68z m-202 32 c0 -10 -4 -19 -9 -19 -10 0 -21 36 -14 44
10 10 23 -5 23 -25z m-273 -66 c-3 -10 -5 -2 -5 17 0 19 2 27 5 18 2 -10 2
-26 0 -35z m33 -73 c0 -10 -4 -21 -9 -24 -10 -7 -20 23 -14 42 6 17 23 4 23
-18z m1770 -140 c0 -5 -2 -10 -4 -10 -3 0 -8 5 -11 10 -3 6 -1 10 4 10 6 0 11
-4 11 -10z m-63 -22 c-3 -8 -6 -5 -6 6 -1 11 2 17 5 13 3 -3 4 -12 1 -19z m0
-65 c-3 -10 -5 -4 -5 12 0 17 2 24 5 18 2 -7 2 -21 0 -30z m36 -33 c-3 -12 -8
-19 -11 -16 -5 6 5 36 12 36 2 0 2 -9 -1 -20z m-173 -15 c0 -8 -4 -15 -10 -15
-5 0 -10 7 -10 15 0 8 5 15 10 15 6 0 10 -7 10 -15z m222 -55 c-22 -26 -24
-25 -10 5 6 13 15 22 19 19 5 -2 1 -14 -9 -24z m-69 -25 c-7 -21 -13 -19 -13
6 0 11 4 18 10 14 5 -3 7 -12 3 -20z m97 -45 c0 -5 -4 -10 -10 -10 -5 0 -10 5
-10 10 0 6 5 10 10 10 6 0 10 -4 10 -10z m-1560 -26 c0 -8 -4 -14 -10 -14 -5
0 -10 9 -10 21 0 11 5 17 10 14 6 -3 10 -13 10 -21z m1121 -85 c-5 -13 -10
-19 -10 -12 -1 15 10 45 15 40 3 -2 0 -15 -5 -28z m-1104 -71 c-3 -8 -6 -5 -6
6 -1 11 2 17 5 13 3 -3 4 -12 1 -19z m70 -25 c-3 -10 -5 -2 -5 17 0 19 2 27 5
18 2 -10 2 -26 0 -35z m30 5 c-3 -8 -6 -5 -6 6 -1 11 2 17 5 13 3 -3 4 -12 1
-19z m17 -133 c3 -8 1 -15 -4 -15 -6 0 -10 7 -10 15 0 8 2 15 4 15 2 0 6 -7
10 -15z m140 -177 c3 -64 8 -129 11 -145 4 -23 4 -24 -4 -8 -12 24 -15 10 -11
-57 l2 -48 -40 0 c-38 0 -40 1 -46 39 -3 22 -9 47 -13 57 -5 13 -3 16 10 11 9
-3 17 -2 17 4 0 5 11 7 25 3 23 -6 25 -3 26 27 3 55 3 82 0 114 -2 17 -2 66
-1 110 3 111 17 50 24 -107z m-175 125 c2 29 26 19 45 -20 15 -31 15 -38 3
-50 -10 -10 -20 -11 -38 -4 -17 7 -19 10 -6 10 24 1 21 16 -6 38 -14 11 -21
25 -18 38 4 18 5 17 12 -5 4 -16 7 -19 8 -7z m99 -55 c-6 -18 -28 -21 -28 -4
0 9 7 16 16 16 9 0 14 -5 12 -12z m818 -115 c-10 -10 -19 5 -10 18 6 11 8 11
12 0 2 -7 1 -15 -2 -18z m58 -50 c-8 -25 -14 -55 -14 -65 0 -11 -7 -27 -17
-36 -15 -16 -16 -14 -11 25 6 43 38 122 50 123 3 0 0 -21 -8 -47z m-64 23 c0
-3 -4 -8 -10 -11 -5 -3 -10 -1 -10 4 0 6 5 11 10 11 6 0 10 -2 10 -4z m-23
-68 c-3 -8 -6 -5 -6 6 -1 11 2 17 5 13 3 -3 4 -12 1 -19z m-637 -38 c21 -23
34 -30 58 -28 17 2 31 -1 31 -7 1 -5 -5 -10 -12 -10 -16 0 -77 -28 -77 -36 0
-4 26 0 57 7 62 14 103 10 103 -12 0 -8 6 -11 15 -8 24 10 30 -25 9 -46 -15
-15 -40 -20 -117 -25 -109 -6 -121 0 -99 57 9 23 8 30 -4 35 -18 7 -20 103 -2
103 6 0 23 -14 38 -30z m627 -2 c-3 -8 -6 -5 -6 6 -1 11 2 17 5 13 3 -3 4 -12
1 -19z m50 -70 c-3 -7 -5 -2 -5 12 0 14 2 19 5 13 2 -7 2 -19 0 -25z m-11 -73
c-4 -25 -12 -45 -17 -45 -5 0 -7 11 -4 25 3 14 7 37 10 51 10 44 18 18 11 -31z
m-596 -150 c0 -15 -6 -25 -14 -25 -22 0 -30 19 -16 35 18 22 30 18 30 -10z
m-160 -225 c0 -5 -4 -10 -10 -10 -5 0 -10 5 -10 10 0 6 5 10 10 10 6 0 10 -4
10 -10z m1916 -48 c-11 -10 -15 4 -8 28 l7 25 3 -23 c2 -13 1 -26 -2 -30z"/>
<path d="M2090 4171 c0 -6 5 -13 10 -16 6 -3 10 1 10 9 0 9 -4 16 -10 16 -5 0
-10 -4 -10 -9z"/>
<path d="M3028 3023 c7 -3 16 -2 19 1 4 3 -2 6 -13 5 -11 0 -14 -3 -6 -6z"/>
<path d="M2020 2730 c-23 -7 -23 -8 -3 -9 12 -1 25 4 28 9 3 6 5 10 3 9 -2 -1
-14 -5 -28 -9z"/>
<path d="M1958 2703 c7 -3 16 -2 19 1 4 3 -2 6 -13 5 -11 0 -14 -3 -6 -6z"/>
<path d="M1908 2693 c7 -3 16 -2 19 1 4 3 -2 6 -13 5 -11 0 -14 -3 -6 -6z"/>
<path d="M1770 2680 l-55 -7 60 -1 c33 -1 67 3 75 8 17 11 11 11 -80 0z"/>
<path d="M1845 2540 c-10 -11 -14 -20 -8 -20 5 0 18 9 28 20 10 11 14 20 8 20
-5 0 -18 -9 -28 -20z"/>
<path d="M2962 2455 c3 -30 23 -33 37 -6 8 15 7 20 -5 25 -27 11 -34 7 -32
-19z"/>
<path d="M1780 2420 c-13 -19 -27 -37 -31 -40 -25 -20 -62 -140 -53 -175 9
-37 36 -28 40 14 2 19 20 65 40 104 23 46 34 80 32 101 l-3 31 -25 -35z"/>
<path d="M2100 1960 c0 -5 5 -10 11 -10 5 0 7 5 4 10 -3 6 -8 10 -11 10 -2 0
-4 -4 -4 -10z"/>
<path d="M2250 1938 c-14 -11 -34 -18 -47 -15 -13 2 -23 0 -23 -4 0 -10 54
-12 88 -3 12 4 22 12 22 20 0 22 -14 23 -40 2z"/>
<path d="M2420 1910 c0 -5 9 -10 21 -10 11 0 17 5 14 10 -3 6 -13 10 -21 10
-8 0 -14 -4 -14 -10z"/>
<path d="M2807 1843 c-12 -11 -8 -23 8 -23 8 0 15 7 15 15 0 16 -12 20 -23 8z"/>
<path d="M2792 1784 c-7 -8 -8 -14 -3 -14 10 0 25 19 20 25 -2 1 -10 -3 -17
-11z"/>
<path d="M2480 1341 c0 -6 5 -13 10 -16 6 -3 10 1 10 9 0 9 -4 16 -10 16 -5 0
-10 -4 -10 -9z"/>
<path d="M2320 1261 c0 -6 5 -13 10 -16 6 -3 10 1 10 9 0 9 -4 16 -10 16 -5 0
-10 -4 -10 -9z"/>
<path d="M196 2585 c4 -8 10 -15 14 -15 4 0 10 7 14 15 4 10 -1 15 -14 15 -13
0 -18 -5 -14 -15z"/>
<path d="M680 2055 c0 -8 5 -15 10 -15 6 0 10 7 10 15 0 8 -4 15 -10 15 -5 0
-10 -7 -10 -15z"/>
<path d="M730 1910 c0 -5 5 -10 10 -10 6 0 10 5 10 10 0 6 -4 10 -10 10 -5 0
-10 -4 -10 -10z"/>
<path d="M682 1860 c0 -14 2 -19 5 -12 2 6 2 18 0 25 -3 6 -5 1 -5 -13z"/>
<path d="M670 1766 c0 -9 5 -16 10 -16 6 0 10 4 10 9 0 6 -4 13 -10 16 -5 3
-10 -1 -10 -9z"/>
<path d="M695 1730 c-3 -5 1 -10 9 -10 9 0 16 5 16 10 0 6 -4 10 -9 10 -6 0
-13 -4 -16 -10z"/>
<path d="M894 1258 c-4 -6 0 -16 7 -23 12 -11 17 -10 32 5 17 17 17 18 -8 22
-14 3 -28 1 -31 -4z"/>
<path d="M842 1195 c0 -16 2 -22 5 -12 2 9 2 23 0 30 -3 6 -5 -1 -5 -18z"/>
<path d="M870 1186 c0 -13 7 -26 15 -30 11 -4 15 2 15 24 0 20 -5 30 -15 30
-9 0 -15 -9 -15 -24z"/>
<path d="M995 1110 c-3 -6 1 -7 9 -4 18 7 21 14 7 14 -6 0 -13 -4 -16 -10z"/>
<path d="M924 1055 c-1 -18 3 -25 16 -25 16 0 17 3 7 25 -15 32 -22 32 -23 0z"/>
<path d="M960 986 c0 -9 5 -16 10 -16 6 0 10 4 10 9 0 6 -4 13 -10 16 -5 3
-10 -1 -10 -9z"/>
<path d="M1010 935 c0 -2 9 -9 20 -15 16 -9 18 -8 14 5 -5 13 -34 22 -34 10z"/>
<path d="M912 268 c-9 -47 -5 -81 8 -57 12 22 19 99 10 99 -5 0 -13 -19 -18
-42z"/>
<path d="M1960 279 c0 -8 -9 -25 -20 -39 -11 -14 -20 -31 -20 -39 0 -7 -20
-46 -44 -86 -24 -39 -47 -82 -50 -93 -7 -21 -4 -22 43 -22 56 0 53 -4 71 100
6 36 16 91 22 123 6 32 8 60 4 64 -3 3 -6 0 -6 -8z"/>
<path d="M795 250 c-12 -4 -27 -15 -34 -24 -18 -21 -28 -20 -36 4 -5 17 -12
19 -53 14 -91 -12 -186 -74 -234 -152 -12 -21 -28 -41 -35 -45 -7 -4 -17 -17
-23 -27 -10 -19 -6 -20 150 -20 125 0 161 3 157 13 -3 7 -19 11 -46 9 -31 -2
-41 1 -41 13 0 10 10 15 27 15 42 0 73 35 66 76 -4 26 -2 34 10 34 11 0 19
-17 27 -57 21 -113 16 -104 63 -101 l42 3 2 55 c1 30 7 81 13 113 6 33 9 65 6
73 -6 15 -30 17 -61 4z"/>
<path d="M891 64 c0 -11 3 -14 6 -6 3 7 2 16 -1 19 -3 4 -6 -2 -5 -13z"/>
</g>
</svg>
